<?xml version="1.0" encoding="iso-8859-1"?>
<!-- Generator: Adobe Illustrator 19.0.0, SVG Export Plug-In . SVG Version: 6.00 Build 0)  -->
<svg version="1.1" id="Capa_1" xmlns="http://www.w3.org/2000/svg" xmlns:xlink="http://www.w3.org/1999/xlink" x="0px" y="0px"
	 viewBox="0 0 464.007 464.007" style="enable-background:new 0 0 464.007 464.007;" xml:space="preserve">
<g>
	<path style="fill:#DBDBDB;" d="M188.003,184.007h-64v-72l48,16L188.003,184.007z"/>
	<path style="fill:#DBDBDB;" d="M292.003,120.007h-64l80,112h64L292.003,120.007z"/>
	<path style="fill:#DBDBDB;" d="M124.003,184.007h272c35.346,0,64,28.654,64,64v32l0,0h-272c-35.346,0-64-28.654-64-64V184.007
		L124.003,184.007z"/>
</g>
<path style="fill:#EAEAE8;" d="M396.003,184.007h-272v16c0,35.346,28.654,64,64,64h272v-16
	C460.003,212.661,431.35,184.007,396.003,184.007z"/>
<g>
	<path style="fill:#6FBBC6;" d="M332.003,208.007h16v16h-16V208.007z"/>
	<path style="fill:#6FBBC6;" d="M364.003,208.007h16v16h-16V208.007z"/>
	<path style="fill:#6FBBC6;" d="M300.003,208.007h16v16h-16V208.007z"/>
	<path style="fill:#6FBBC6;" d="M268.003,208.007h16v16h-16V208.007z"/>
	<path style="fill:#6FBBC6;" d="M236.003,208.007h16v16h-16V208.007z"/>
</g>
<g>
	<path style="fill:#F9E0A0;" d="M20.003,80.007h16v16h-16V80.007z"/>
	<path style="fill:#F9E0A0;" d="M4.003,112.007h16v16h-16V112.007z"/>
</g>
<g>
	<path style="fill:#8ACED8;" d="M348.003,24.007h-1.472c-4.335-12.442-17.935-19.014-30.376-14.68
		c-6.877,2.396-12.284,7.802-14.68,14.68h-1.472c-8.837,0-16,7.163-16,16s7.163,16,16,16h48c8.837,0,16-7.163,16-16
		S356.84,24.007,348.003,24.007L348.003,24.007z"/>
	<path style="fill:#8ACED8;" d="M404.003,352.007h-1.472c-4.335-12.442-17.935-19.014-30.376-14.68
		c-6.877,2.396-12.284,7.802-14.68,14.68h-1.472c-8.837,0-16,7.163-16,16s7.163,16,16,16h48c8.837,0,16-7.163,16-16
		S412.84,352.007,404.003,352.007L404.003,352.007z"/>
	<path style="fill:#8ACED8;" d="M388.003,88.007h17.472c4.393-12.473,18.066-19.023,30.539-14.629
		c9.596,3.38,16.009,12.455,15.989,22.629v8c0,8.837-7.163,16-16,16h-48c-8.837,0-16-7.163-16-16S379.167,88.007,388.003,88.007z"/>
	<path style="fill:#8ACED8;" d="M156.003,432.007h-1.472c-4.335-12.442-17.935-19.014-30.376-14.68
		c-6.877,2.396-12.284,7.802-14.68,14.68h-1.472c-8.837,0-16,7.163-16,16s7.163,16,16,16h48c8.837,0,16-7.163,16-16
		S164.84,432.007,156.003,432.007z"/>
	<path style="fill:#8ACED8;" d="M28.003,376.007h17.472c4.393-12.473,18.066-19.023,30.539-14.629
		c9.596,3.38,16.009,12.455,15.989,22.629v8c0,8.837-7.163,16-16,16h-48c-8.837,0-16-7.163-16-16S19.167,376.007,28.003,376.007z"/>
	<path style="fill:#8ACED8;" d="M92.003,16.007h17.472c4.393-12.473,18.066-19.023,30.539-14.629
		c9.596,3.38,16.009,12.455,15.989,22.629v8c0,8.837-7.163,16-16,16h-48c-8.837,0-16-7.163-16-16S83.167,16.007,92.003,16.007z"/>
</g>
<g>
	<path style="fill:#B3E4E8;" d="M348.003,24.007h-1.472c-4.335-12.442-17.935-19.014-30.376-14.68
		c-6.877,2.396-12.284,7.802-14.68,14.68h-1.472c-5.693,0.016-10.946,3.065-13.784,8c2.838,4.935,8.091,7.984,13.784,8h48
		c5.693-0.016,10.946-3.065,13.784-8C358.949,27.072,353.696,24.023,348.003,24.007L348.003,24.007z"/>
	<path style="fill:#B3E4E8;" d="M404.003,352.007h-1.472c-4.335-12.442-17.935-19.014-30.376-14.68
		c-6.877,2.396-12.284,7.802-14.68,14.68h-1.472c-5.693,0.016-10.946,3.065-13.784,8c2.838,4.935,8.091,7.984,13.784,8h48
		c5.693-0.016,10.946-3.065,13.784-8C414.949,355.072,409.696,352.023,404.003,352.007L404.003,352.007z"/>
	<path style="fill:#B3E4E8;" d="M405.475,88.007h-17.472c-5.693,0.016-10.946,3.065-13.784,8c2.838,4.935,8.091,7.984,13.784,8h48
		c7.436-0.013,13.883-5.147,15.56-12.392c-2.376-12.991-14.832-21.596-27.823-19.221C415.289,73.94,408.317,79.899,405.475,88.007z"
		/>
	<path style="fill:#B3E4E8;" d="M156.003,432.007h-1.472c-4.335-12.442-17.935-19.014-30.376-14.68
		c-6.877,2.396-12.284,7.802-14.68,14.68h-1.472c-5.693,0.016-10.946,3.065-13.784,8c2.838,4.935,8.091,7.984,13.784,8h48
		c5.693-0.016,10.946-3.065,13.784-8C166.949,435.072,161.696,432.023,156.003,432.007z"/>
	<path style="fill:#B3E4E8;" d="M45.475,376.007H28.003c-5.693,0.016-10.946,3.065-13.784,8c2.838,4.935,8.091,7.984,13.784,8h48
		c7.436-0.013,13.883-5.147,15.56-12.392c-2.376-12.991-14.832-21.596-27.823-19.221C55.289,361.94,48.317,367.899,45.475,376.007z"
		/>
	<path style="fill:#B3E4E8;" d="M109.475,16.007H92.003c-5.693,0.016-10.946,3.065-13.784,8c2.838,4.935,8.091,7.984,13.784,8h48
		c7.436-0.013,13.883-5.147,15.56-12.392C153.188,6.624,140.731-1.981,127.74,0.394C119.289,1.94,112.317,7.899,109.475,16.007z"/>
</g>
<g>
	<path style="fill:#F9E0A0;" d="M52.003,80.007h48v16h-48V80.007z"/>
	<path style="fill:#F9E0A0;" d="M36.003,112.007h64v16h-64V112.007z"/>
	<path style="fill:#F9E0A0;" d="M140.003,304.007h16v16h-16V304.007z"/>
	<path style="fill:#F9E0A0;" d="M116.003,336.007h16v16h-16V336.007z"/>
	<path style="fill:#F9E0A0;" d="M172.003,304.007h32v16h-32V304.007z"/>
	<path style="fill:#F9E0A0;" d="M148.003,336.007h56v16h-56V336.007z"/>
</g>
<g>
	<path style="fill:#EAEAE8;" d="M316.003,256.007l-80,112h48l80-112H316.003z"/>
	<path style="fill:#EAEAE8;" d="M284.003,368.007h-64l80-112h64L284.003,368.007z"/>
</g>
<path style="fill:#B9B9B9;" d="M124.003,112.007v72h16v-66.664L124.003,112.007z"/>
<path style="fill:#6FBBC6;" d="M396.003,224.007h56v-6.96c-1.769-3.179-3.803-6.203-6.08-9.04h-49.92V224.007z"/>
<g>
</g>
<g>
</g>
<g>
</g>
<g>
</g>
<g>
</g>
<g>
</g>
<g>
</g>
<g>
</g>
<g>
</g>
<g>
</g>
<g>
</g>
<g>
</g>
<g>
</g>
<g>
</g>
<g>
</g>
</svg>
